# MagicaVoxel @ Ephtracy

# group
o 

# material
mtllib bush1.mtl
usemtl palette

# normals
vn -1 0 0
vn 1 0 0
vn 0 0 1
vn 0 0 -1
vn 0 -1 0
vn 0 1 0

# texcoords
vt 0.943359 0.5
vt 0.962891 0.5
vt 0.978516 0.5

# verts
v -0.4 0.2 0
v -0.4 0.2 -0.4
v -0.4 0.3 -0.2
v -0.4 0.3 -0.4
v -0.4 0.4 0
v -0.4 0.4 -0.2
v -0.4 0.4 -0.4
v -0.3 0 0
v -0.3 0 -0.1
v -0.3 0.1 0.1
v -0.3 0.1 0
v -0.3 0.1 -0.1
v -0.3 0.1 -0.3
v -0.3 0.2 0
v -0.3 0.2 -0.3
v -0.3 0.4 0
v -0.3 0.4 -0.2
v -0.3 0.4 -0.3
v -0.3 0.5 0.1
v -0.3 0.5 0
v -0.3 0.5 -0.2
v -0.3 0.5 -0.3
v -0.3 0.6 0.1
v -0.3 0.6 0
v -0.3 0.6 -0.2
v -0.3 0.6 -0.3
v -0.2 0 0.2
v -0.2 0 0.1
v -0.2 0 -0.2
v -0.2 0 -0.3
v -0.2 0.1 0.2
v -0.2 0.1 0.1
v -0.2 0.1 -0.2
v -0.2 0.1 -0.3
v -0.2 0.4 0.2
v -0.2 0.4 0.1
v -0.1 0 0.1
v -0.1 0 0
v -0.1 0 -0.1
v -0.1 0 -0.2
v -0.1 0.1 0.3
v -0.1 0.1 0.2
v -0.1 0.1 0.1
v -0.1 0.1 0
v -0.1 0.1 -0.1
v -0.1 0.1 -0.2
v -0.1 0.2 0.3
v -0.1 0.2 0.2
v -0.1 0.3 0.3
v -0.1 0.3 0.2
v 0 0 0
v 0 0 -0.1
v 0 0.1 0
v 0 0.1 -0.1
v 0.1 0 0.1
v 0.1 0 0
v 0.1 0 -0.2
v 0.1 0 -0.3
v 0.1 0.1 0.1
v 0.1 0.1 0
v 0.1 0.1 -0.2
v 0.1 0.1 -0.3
v -0.2 0 0
v -0.2 0 -0.1
v -0.2 0.1 0
v -0.2 0.1 -0.1
v -0.1 0 0.2
v -0.1 0 0.1
v -0.1 0 -0.2
v -0.1 0 -0.3
v -0.1 0.1 0.2
v -0.1 0.1 0.1
v -0.1 0.1 -0.2
v -0.1 0.1 -0.3
v 0 0 0.1
v 0 0 0
v 0 0 -0.1
v 0 0 -0.2
v 0 0.1 0.1
v 0 0.1 0
v 0 0.1 -0.1
v 0 0.1 -0.2
v 0 0.2 -0.3
v 0 0.2 -0.4
v 0 0.3 -0.3
v 0 0.3 -0.4
v 0 0.4 0.1
v 0 0.4 0
v 0 0.4 -0.3
v 0 0.4 -0.4
v 0 0.6 0.1
v 0 0.6 0
v 0.1 0 0
v 0.1 0 -0.1
v 0.1 0.1 0
v 0.1 0.1 -0.1
v 0.1 0.3 0.2
v 0.1 0.3 0.1
v 0.1 0.3 0
v 0.1 0.4 0.2
v 0.1 0.4 0.1
v 0.1 0.4 0
v 0.1 0.4 -0.1
v 0.1 0.4 -0.3
v 0.1 0.5 -0.2
v 0.1 0.5 -0.3
v 0.1 0.6 0
v 0.1 0.6 -0.1
v 0.1 0.6 -0.2
v 0.1 0.6 -0.3
v 0.2 0 0.1
v 0.2 0 0
v 0.2 0 -0.2
v 0.2 0 -0.3
v 0.2 0.1 0.3
v 0.2 0.1 0.2
v 0.2 0.1 0.1
v 0.2 0.1 0
v 0.2 0.1 -0.2
v 0.2 0.1 -0.3
v 0.2 0.3 0.3
v 0.2 0.3 0.2
v 0.2 0.3 0
v 0.2 0.3 -0.1
v 0.2 0.3 -0.2
v 0.2 0.3 -0.3
v 0.2 0.4 0
v 0.2 0.4 -0.3
v 0.3 0.1 0.2
v 0.3 0.1 0.1
v 0.3 0.1 -0.1
v 0.3 0.1 -0.2
v 0.3 0.1 -0.3
v 0.3 0.2 0.1
v 0.3 0.2 -0.1
v 0.3 0.2 -0.2
v 0.3 0.2 -0.3
v 0.3 0.3 0.2
v 0.3 0.3 -0.1
v 0.3 0.3 -0.2
v 0.3 0.3 -0.3
v -0.1 0.1 0.3
v -0.1 0.2 0.3
v -0.1 0.3 0.3
v 0 0.1 0.3
v 0 0.2 0.3
v 0 0.3 0.3
v 0.1 0.1 0.3
v 0.1 0.2 0.3
v 0.2 0.1 0.3
v 0.2 0.3 0.3
v -0.2 0 0.2
v -0.2 0.1 0.2
v -0.2 0.4 0.2
v -0.1 0 0.2
v -0.1 0.1 0.2
v -0.1 0.2 0.2
v -0.1 0.3 0.2
v 0 0.3 0.2
v 0 0.4 0.2
v 0.1 0.3 0.2
v 0.1 0.4 0.2
v 0.2 0.1 0.2
v 0.2 0.3 0.2
v 0.3 0.1 0.2
v 0.3 0.3 0.2
v -0.3 0.1 0.1
v -0.3 0.5 0.1
v -0.3 0.6 0.1
v -0.2 0.1 0.1
v -0.2 0.4 0.1
v -0.1 0 0.1
v -0.1 0.1 0.1
v -0.1 0.5 0.1
v -0.1 0.6 0.1
v 0 0 0.1
v 0 0.1 0.1
v 0 0.4 0.1
v 0 0.6 0.1
v 0.1 0 0.1
v 0.1 0.1 0.1
v 0.2 0 0.1
v 0.2 0.1 0.1
v -0.4 0.2 0
v -0.4 0.4 0
v -0.3 0 0
v -0.3 0.1 0
v -0.3 0.2 0
v -0.3 0.4 0
v -0.2 0 0
v -0.2 0.1 0
v 0 0 0
v 0 0.1 0
v 0 0.4 0
v 0 0.6 0
v 0.1 0 0
v 0.1 0.1 0
v 0.1 0.3 0
v 0.1 0.4 0
v 0.1 0.6 0
v 0.2 0.3 0
v 0.2 0.4 0
v -0.1 0 -0.1
v -0.1 0.1 -0.1
v 0 0 -0.1
v 0 0.1 -0.1
v -0.2 0 -0.2
v -0.2 0.1 -0.2
v -0.1 0 -0.2
v -0.1 0.1 -0.2
v 0.1 0 -0.2
v 0.1 0.1 -0.2
v 0.2 0 -0.2
v 0.2 0.1 -0.2
v -0.2 0 0.1
v -0.2 0.1 0.1
v -0.1 0 0.1
v -0.1 0.1 0.1
v -0.1 0 0
v -0.1 0.1 0
v 0 0 0
v 0 0.1 0
v 0.1 0 0
v 0.1 0.1 0
v 0.2 0 0
v 0.2 0.1 0
v -0.3 0 -0.1
v -0.3 0.1 -0.1
v -0.2 0 -0.1
v -0.2 0.1 -0.1
v 0 0 -0.1
v 0 0.1 -0.1
v 0.1 0 -0.1
v 0.1 0.1 -0.1
v -0.1 0 -0.2
v -0.1 0.1 -0.2
v 0 0 -0.2
v 0 0.1 -0.2
v -0.3 0.1 -0.3
v -0.3 0.2 -0.3
v -0.3 0.4 -0.3
v -0.3 0.5 -0.3
v -0.3 0.6 -0.3
v -0.2 0 -0.3
v -0.2 0.1 -0.3
v -0.2 0.2 -0.3
v -0.2 0.4 -0.3
v -0.2 0.5 -0.3
v -0.2 0.6 -0.3
v -0.1 0 -0.3
v -0.1 0.1 -0.3
v -0.1 0.4 -0.3
v 0 0.1 -0.3
v 0 0.2 -0.3
v 0 0.3 -0.3
v 0 0.4 -0.3
v 0 0.5 -0.3
v 0 0.6 -0.3
v 0.1 0 -0.3
v 0.1 0.1 -0.3
v 0.1 0.4 -0.3
v 0.1 0.5 -0.3
v 0.1 0.6 -0.3
v 0.2 0 -0.3
v 0.2 0.1 -0.3
v 0.2 0.2 -0.3
v 0.2 0.3 -0.3
v 0.2 0.4 -0.3
v 0.3 0.1 -0.3
v 0.3 0.2 -0.3
v 0.3 0.3 -0.3
v -0.4 0.2 -0.4
v -0.4 0.3 -0.4
v -0.4 0.4 -0.4
v -0.3 0.3 -0.4
v -0.3 0.4 -0.4
v -0.1 0.3 -0.4
v -0.1 0.4 -0.4
v 0 0.2 -0.4
v 0 0.3 -0.4
v 0 0.4 -0.4
v -0.2 0 0.2
v -0.1 0 0.2
v -0.2 0 0.1
v -0.1 0 0.1
v 0 0 0.1
v 0.1 0 0.1
v 0.2 0 0.1
v -0.3 0 0
v -0.2 0 0
v -0.1 0 0
v 0 0 0
v 0.1 0 0
v 0.2 0 0
v -0.3 0 -0.1
v -0.2 0 -0.1
v -0.1 0 -0.1
v 0 0 -0.1
v 0.1 0 -0.1
v -0.2 0 -0.2
v -0.1 0 -0.2
v 0 0 -0.2
v 0.1 0 -0.2
v 0.2 0 -0.2
v -0.2 0 -0.3
v -0.1 0 -0.3
v 0.1 0 -0.3
v 0.2 0 -0.3
v -0.1 0.1 0.3
v 0 0.1 0.3
v 0.1 0.1 0.3
v 0.2 0.1 0.3
v -0.1 0.1 0.2
v 0 0.1 0.2
v 0.1 0.1 0.2
v 0.2 0.1 0.2
v 0.3 0.1 0.2
v -0.3 0.1 0.1
v -0.2 0.1 0.1
v -0.1 0.1 0.1
v 0 0.1 0.1
v 0.1 0.1 0.1
v 0.2 0.1 0.1
v 0.3 0.1 0.1
v -0.3 0.1 0
v -0.2 0.1 0
v -0.1 0.1 0
v 0 0.1 0
v 0.1 0.1 0
v 0.2 0.1 0
v -0.3 0.1 -0.1
v -0.2 0.1 -0.1
v -0.1 0.1 -0.1
v 0 0.1 -0.1
v 0.1 0.1 -0.1
v 0.2 0.1 -0.1
v 0.3 0.1 -0.1
v -0.2 0.1 -0.2
v -0.1 0.1 -0.2
v 0 0.1 -0.2
v 0.1 0.1 -0.2
v 0.2 0.1 -0.2
v 0.3 0.1 -0.2
v -0.3 0.1 -0.3
v -0.2 0.1 -0.3
v -0.1 0.1 -0.3
v 0 0.1 -0.3
v 0.1 0.1 -0.3
v 0.2 0.1 -0.3
v 0.3 0.1 -0.3
v -0.4 0.2 0
v -0.3 0.2 0
v -0.3 0.2 -0.3
v -0.2 0.2 -0.3
v 0 0.2 -0.3
v -0.4 0.2 -0.4
v 0 0.2 -0.4
v -0.1 0.3 0.3
v 0 0.3 0.3
v 0.2 0.3 0.3
v -0.1 0.3 0.2
v 0 0.3 0.2
v 0.1 0.3 0.2
v 0.2 0.3 0.2
v 0.3 0.3 0.2
v 0.1 0.3 0.1
v 0.1 0.3 0
v 0.2 0.3 0
v 0.2 0.3 -0.1
v 0.3 0.3 -0.1
v 0.2 0.3 -0.2
v 0.3 0.3 -0.2
v 0.2 0.3 -0.3
v 0.3 0.3 -0.3
v -0.2 0.4 0.2
v 0 0.4 0.2
v 0.1 0.4 0.2
v -0.2 0.4 0.1
v 0 0.4 0.1
v 0.1 0.4 0.1
v -0.4 0.4 0
v -0.3 0.4 0
v 0 0.4 0
v 0.1 0.4 0
v 0.2 0.4 0
v 0.1 0.4 -0.1
v -0.4 0.4 -0.2
v -0.3 0.4 -0.2
v -0.3 0.4 -0.3
v -0.2 0.4 -0.3
v -0.1 0.4 -0.3
v 0 0.4 -0.3
v 0.1 0.4 -0.3
v 0.2 0.4 -0.3
v -0.4 0.4 -0.4
v -0.3 0.4 -0.4
v -0.1 0.4 -0.4
v 0 0.4 -0.4
v -0.3 0.6 0.1
v -0.1 0.6 0.1
v 0 0.6 0.1
v -0.3 0.6 0
v -0.1 0.6 0
v 0 0.6 0
v 0.1 0.6 0
v 0 0.6 -0.1
v 0.1 0.6 -0.1
v -0.3 0.6 -0.2
v -0.2 0.6 -0.2
v 0 0.6 -0.2
v 0.1 0.6 -0.2
v -0.3 0.6 -0.3
v -0.2 0.6 -0.3
v 0 0.6 -0.3
v 0.1 0.6 -0.3

# faces
f 3/3/1 2/3/1 1/3/1
f 4/3/1 2/3/1 3/3/1
f 5/3/1 3/3/1 1/3/1
f 6/2/1 4/2/1 3/2/1
f 6/3/1 3/3/1 5/3/1
f 7/2/1 4/2/1 6/2/1
f 11/1/1 9/1/1 8/1/1
f 12/1/1 9/1/1 11/1/1
f 14/3/1 11/3/1 10/3/1
f 14/3/1 13/3/1 12/3/1
f 14/3/1 12/3/1 11/3/1
f 15/3/1 13/3/1 14/3/1
f 16/3/1 14/3/1 10/3/1
f 19/3/1 16/3/1 10/3/1
f 19/3/1 18/3/1 17/3/1
f 19/3/1 17/3/1 16/3/1
f 20/3/1 18/3/1 19/3/1
f 21/3/1 18/3/1 20/3/1
f 22/3/1 18/3/1 21/3/1
f 23/2/1 20/2/1 19/2/1
f 24/3/1 21/3/1 20/3/1
f 24/2/1 20/2/1 23/2/1
f 25/2/1 22/2/1 21/2/1
f 25/3/1 21/3/1 24/3/1
f 26/2/1 22/2/1 25/2/1
f 31/1/1 28/1/1 27/1/1
f 32/1/1 28/1/1 31/1/1
f 33/1/1 30/1/1 29/1/1
f 34/1/1 30/1/1 33/1/1
f 35/3/1 32/3/1 31/3/1
f 36/3/1 32/3/1 35/3/1
f 43/1/1 38/1/1 37/1/1
f 44/1/1 38/1/1 43/1/1
f 45/1/1 40/1/1 39/1/1
f 46/1/1 40/1/1 45/1/1
f 47/3/1 42/3/1 41/3/1
f 48/3/1 42/3/1 47/3/1
f 49/2/1 48/2/1 47/2/1
f 50/2/1 48/2/1 49/2/1
f 53/1/1 52/1/1 51/1/1
f 54/1/1 52/1/1 53/1/1
f 59/1/1 56/1/1 55/1/1
f 60/1/1 56/1/1 59/1/1
f 61/1/1 58/1/1 57/1/1
f 62/1/1 58/1/1 61/1/1
f 63/1/2 64/1/2 65/1/2
f 65/1/2 64/1/2 66/1/2
f 67/1/2 68/1/2 71/1/2
f 71/1/2 68/1/2 72/1/2
f 69/1/2 70/1/2 73/1/2
f 73/1/2 70/1/2 74/1/2
f 75/1/2 76/1/2 79/1/2
f 79/1/2 76/1/2 80/1/2
f 77/1/2 78/1/2 81/1/2
f 81/1/2 78/1/2 82/1/2
f 83/3/2 84/3/2 85/3/2
f 85/3/2 84/3/2 86/3/2
f 85/2/2 86/2/2 89/2/2
f 89/2/2 86/2/2 90/2/2
f 87/3/2 88/3/2 91/3/2
f 91/3/2 88/3/2 92/3/2
f 93/1/2 94/1/2 95/1/2
f 95/1/2 94/1/2 96/1/2
f 97/2/2 98/2/2 100/2/2
f 98/3/2 99/3/2 101/3/2
f 100/2/2 98/2/2 101/2/2
f 101/3/2 99/3/2 102/3/2
f 103/3/2 104/3/2 105/3/2
f 105/3/2 104/3/2 106/3/2
f 102/2/2 103/2/2 107/2/2
f 103/3/2 105/3/2 108/3/2
f 107/2/2 103/2/2 108/2/2
f 105/2/2 106/2/2 109/2/2
f 108/3/2 105/3/2 109/3/2
f 109/2/2 106/2/2 110/2/2
f 111/1/2 112/1/2 117/1/2
f 117/1/2 112/1/2 118/1/2
f 113/1/2 114/1/2 119/1/2
f 119/1/2 114/1/2 120/1/2
f 115/3/2 116/3/2 121/3/2
f 121/3/2 116/3/2 122/3/2
f 125/3/2 126/3/2 127/3/2
f 124/3/2 125/3/2 127/3/2
f 123/3/2 124/3/2 127/3/2
f 127/3/2 126/3/2 128/3/2
f 129/3/2 130/3/2 134/3/2
f 130/2/2 131/2/2 134/2/2
f 131/3/2 132/3/2 135/3/2
f 134/2/2 131/2/2 135/2/2
f 132/2/2 133/2/2 136/2/2
f 135/3/2 132/3/2 136/3/2
f 136/2/2 133/2/2 137/2/2
f 134/3/2 135/3/2 138/3/2
f 129/3/2 134/3/2 138/3/2
f 135/2/2 136/2/2 139/2/2
f 138/3/2 135/3/2 139/3/2
f 136/3/2 137/3/2 140/3/2
f 139/2/2 136/2/2 140/2/2
f 140/3/2 137/3/2 141/3/2
f 145/3/3 143/3/3 142/3/3
f 146/2/3 144/2/3 143/2/3
f 146/3/3 143/3/3 145/3/3
f 147/2/3 144/2/3 146/2/3
f 148/2/3 146/2/3 145/2/3
f 149/3/3 147/3/3 146/3/3
f 149/2/3 146/2/3 148/2/3
f 150/3/3 149/3/3 148/3/3
f 151/3/3 147/3/3 149/3/3
f 151/3/3 149/3/3 150/3/3
f 155/1/3 153/1/3 152/1/3
f 156/3/3 154/3/3 153/3/3
f 156/1/3 153/1/3 155/1/3
f 157/3/3 154/3/3 156/3/3
f 158/3/3 154/3/3 157/3/3
f 159/3/3 154/3/3 158/3/3
f 160/3/3 154/3/3 159/3/3
f 161/2/3 160/2/3 159/2/3
f 162/2/3 160/2/3 161/2/3
f 165/3/3 164/3/3 163/3/3
f 166/3/3 164/3/3 165/3/3
f 170/3/3 168/3/3 167/3/3
f 171/3/3 168/3/3 170/3/3
f 174/2/3 169/2/3 168/2/3
f 174/3/3 168/3/3 171/3/3
f 175/2/3 169/2/3 174/2/3
f 176/1/3 173/1/3 172/1/3
f 177/1/3 173/1/3 176/1/3
f 178/3/3 174/3/3 171/3/3
f 178/3/3 175/3/3 174/3/3
f 179/3/3 175/3/3 178/3/3
f 182/1/3 181/1/3 180/1/3
f 183/1/3 181/1/3 182/1/3
f 188/3/3 185/3/3 184/3/3
f 189/3/3 185/3/3 188/3/3
f 190/1/3 187/1/3 186/1/3
f 191/1/3 187/1/3 190/1/3
f 196/1/3 193/1/3 192/1/3
f 197/1/3 193/1/3 196/1/3
f 199/2/3 195/2/3 194/2/3
f 200/2/3 195/2/3 199/2/3
f 201/3/3 199/3/3 198/3/3
f 202/3/3 199/3/3 201/3/3
f 205/1/3 204/1/3 203/1/3
f 206/1/3 204/1/3 205/1/3
f 209/1/3 208/1/3 207/1/3
f 210/1/3 208/1/3 209/1/3
f 213/1/3 212/1/3 211/1/3
f 214/1/3 212/1/3 213/1/3
f 215/1/4 216/1/4 217/1/4
f 217/1/4 216/1/4 218/1/4
f 219/1/4 220/1/4 221/1/4
f 221/1/4 220/1/4 222/1/4
f 223/1/4 224/1/4 225/1/4
f 225/1/4 224/1/4 226/1/4
f 227/1/4 228/1/4 229/1/4
f 229/1/4 228/1/4 230/1/4
f 231/1/4 232/1/4 233/1/4
f 233/1/4 232/1/4 234/1/4
f 235/1/4 236/1/4 237/1/4
f 237/1/4 236/1/4 238/1/4
f 239/3/4 240/3/4 245/3/4
f 245/3/4 240/3/4 246/3/4
f 241/3/4 242/3/4 247/3/4
f 242/2/4 243/2/4 248/2/4
f 247/3/4 242/3/4 248/3/4
f 248/2/4 243/2/4 249/2/4
f 244/1/4 245/1/4 250/1/4
f 245/2/4 246/2/4 251/2/4
f 250/1/4 245/1/4 251/1/4
f 247/2/4 248/2/4 252/2/4
f 251/2/4 246/2/4 253/2/4
f 253/2/4 246/2/4 254/2/4
f 252/2/4 248/2/4 256/2/4
f 248/3/4 249/3/4 257/3/4
f 256/2/4 248/2/4 257/2/4
f 257/3/4 249/3/4 258/3/4
f 254/3/4 255/3/4 260/3/4
f 255/3/4 256/3/4 260/3/4
f 253/3/4 254/3/4 260/3/4
f 256/3/4 257/3/4 260/3/4
f 260/3/4 257/3/4 261/3/4
f 257/2/4 258/2/4 262/2/4
f 261/3/4 257/3/4 262/3/4
f 262/2/4 258/2/4 263/2/4
f 259/1/4 260/1/4 264/1/4
f 260/3/4 261/3/4 265/3/4
f 264/1/4 260/1/4 265/1/4
f 265/3/4 261/3/4 266/3/4
f 266/3/4 261/3/4 267/3/4
f 267/3/4 261/3/4 268/3/4
f 265/2/4 266/2/4 269/2/4
f 266/3/4 267/3/4 270/3/4
f 269/2/4 266/2/4 270/2/4
f 270/3/4 267/3/4 271/3/4
f 272/3/4 273/3/4 275/3/4
f 273/2/4 274/2/4 275/2/4
f 275/2/4 274/2/4 276/2/4
f 272/3/4 275/3/4 277/3/4
f 275/3/4 276/3/4 277/3/4
f 277/3/4 276/3/4 278/3/4
f 272/3/4 277/3/4 279/3/4
f 277/2/4 278/2/4 280/2/4
f 279/3/4 277/3/4 280/3/4
f 280/2/4 278/2/4 281/2/4
f 284/1/5 283/1/5 282/1/5
f 285/1/5 283/1/5 284/1/5
f 291/1/5 286/1/5 285/1/5
f 292/1/5 286/1/5 291/1/5
f 293/1/5 288/1/5 287/1/5
f 294/1/5 288/1/5 293/1/5
f 295/1/5 290/1/5 289/1/5
f 296/1/5 290/1/5 295/1/5
f 298/1/5 293/1/5 292/1/5
f 299/1/5 293/1/5 298/1/5
f 301/1/5 298/1/5 297/1/5
f 302/1/5 298/1/5 301/1/5
f 305/1/5 301/1/5 300/1/5
f 306/1/5 301/1/5 305/1/5
f 307/1/5 304/1/5 303/1/5
f 308/1/5 304/1/5 307/1/5
f 313/3/5 310/3/5 309/3/5
f 314/2/5 311/2/5 310/2/5
f 314/3/5 310/3/5 313/3/5
f 315/3/5 312/3/5 311/3/5
f 315/2/5 311/2/5 314/2/5
f 316/3/5 312/3/5 315/3/5
f 320/3/5 314/3/5 313/3/5
f 320/3/5 315/3/5 314/3/5
f 320/3/5 317/3/5 316/3/5
f 320/3/5 316/3/5 315/3/5
f 321/3/5 317/3/5 320/3/5
f 322/3/5 317/3/5 321/3/5
f 323/3/5 317/3/5 322/3/5
f 324/3/5 317/3/5 323/3/5
f 325/3/5 319/3/5 318/3/5
f 325/3/5 320/3/5 319/3/5
f 326/3/5 320/3/5 325/3/5
f 327/3/5 320/3/5 326/3/5
f 328/3/5 322/3/5 321/3/5
f 329/3/5 322/3/5 328/3/5
f 330/2/5 324/2/5 323/2/5
f 332/3/5 327/3/5 326/3/5
f 332/3/5 328/3/5 327/3/5
f 333/3/5 328/3/5 332/3/5
f 334/3/5 328/3/5 333/3/5
f 335/3/5 330/3/5 329/3/5
f 336/2/5 324/2/5 330/2/5
f 336/3/5 330/3/5 335/3/5
f 337/2/5 324/2/5 336/2/5
f 338/3/5 332/3/5 331/3/5
f 338/3/5 333/3/5 332/3/5
f 339/3/5 333/3/5 338/3/5
f 340/3/5 335/3/5 334/3/5
f 340/3/5 337/3/5 336/3/5
f 340/3/5 336/3/5 335/3/5
f 341/3/5 337/3/5 340/3/5
f 342/3/5 337/3/5 341/3/5
f 343/3/5 337/3/5 342/3/5
f 344/3/5 338/3/5 331/3/5
f 345/3/5 338/3/5 344/3/5
f 346/2/5 340/2/5 339/2/5
f 347/3/5 341/3/5 340/3/5
f 347/2/5 340/2/5 346/2/5
f 348/3/5 341/3/5 347/3/5
f 349/2/5 343/2/5 342/2/5
f 350/2/5 343/2/5 349/2/5
f 353/3/5 352/3/5 351/3/5
f 356/3/5 353/3/5 351/3/5
f 356/3/5 355/3/5 354/3/5
f 356/3/5 354/3/5 353/3/5
f 357/3/5 355/3/5 356/3/5
f 358/2/6 359/2/6 361/2/6
f 359/3/6 360/3/6 362/3/6
f 361/2/6 359/2/6 362/2/6
f 362/3/6 360/3/6 363/3/6
f 363/3/6 360/3/6 364/3/6
f 364/3/6 365/3/6 366/3/6
f 363/3/6 364/3/6 366/3/6
f 366/3/6 365/3/6 367/3/6
f 367/3/6 365/3/6 368/3/6
f 368/3/6 365/3/6 369/3/6
f 369/3/6 365/3/6 370/3/6
f 369/2/6 370/2/6 371/2/6
f 371/2/6 370/2/6 372/2/6
f 371/3/6 372/3/6 373/3/6
f 373/3/6 372/3/6 374/3/6
f 375/3/6 376/3/6 378/3/6
f 376/2/6 377/2/6 379/2/6
f 378/3/6 376/3/6 379/3/6
f 379/2/6 377/2/6 380/2/6
f 379/3/6 380/3/6 383/3/6
f 383/3/6 380/3/6 384/3/6
f 384/3/6 385/3/6 386/3/6
f 381/3/6 382/3/6 387/3/6
f 387/3/6 382/3/6 388/3/6
f 387/2/6 388/2/6 389/2/6
f 386/3/6 385/3/6 393/3/6
f 393/3/6 385/3/6 394/3/6
f 387/2/6 389/2/6 395/2/6
f 389/3/6 390/3/6 396/3/6
f 395/2/6 389/2/6 396/2/6
f 390/3/6 391/3/6 396/3/6
f 391/2/6 392/2/6 397/2/6
f 396/3/6 391/3/6 397/3/6
f 397/2/6 392/2/6 398/2/6
f 399/2/6 400/2/6 402/2/6
f 400/3/6 401/3/6 403/3/6
f 402/2/6 400/2/6 403/2/6
f 403/3/6 401/3/6 404/3/6
f 402/3/6 403/3/6 406/3/6
f 404/2/6 405/2/6 406/2/6
f 403/3/6 404/3/6 406/3/6
f 406/2/6 405/2/6 407/2/6
f 402/3/6 406/3/6 408/3/6
f 406/3/6 407/3/6 408/3/6
f 408/3/6 407/3/6 409/3/6
f 409/3/6 407/3/6 410/3/6
f 410/3/6 407/3/6 411/3/6
f 408/2/6 409/2/6 412/2/6
f 409/3/6 410/3/6 413/3/6
f 412/2/6 409/2/6 413/2/6
f 410/2/6 411/2/6 414/2/6
f 413/3/6 410/3/6 414/3/6
f 414/2/6 411/2/6 415/2/6
