# MagicaVoxel @ Ephtracy

# group
o 

# material
mtllib container2.mtl
usemtl palette

# normals
vn -1 0 0
vn 1 0 0
vn 0 0 1
vn 0 0 -1
vn 0 -1 0
vn 0 1 0

# texcoords
vt 0.00195313 0.5
vt 0.00585938 0.5
vt 0.00976563 0.5
vt 0.0136719 0.5
vt 0.0175781 0.5
vt 0.0214844 0.5
vt 0.0449219 0.5
vt 0.0722656 0.5
vt 0.0917969 0.5

# verts
v -0.5 0.1 0.5
v -0.5 0.1 -0.5
v -0.5 0.2 0.5
v -0.5 0.2 -0.5
v -0.5 0.3 0.5
v -0.5 0.3 -0.5
v -0.5 0.4 0.5
v -0.5 0.4 -0.5
v -0.5 0.5 0.5
v -0.5 0.5 -0.5
v -0.5 0.6 0.5
v -0.5 0.6 -0.5
v -0.5 0.7 0.5
v -0.5 0.7 -0.5
v -0.5 0.8 0.5
v -0.5 0.8 -0.5
v -0.5 0.9 0.5
v -0.5 0.9 -0.5
v -0.5 1 0.5
v -0.5 1 -0.5
v -0.4 0 0.4
v -0.4 0 -0.4
v -0.4 0.1 0.4
v -0.4 0.1 -0.4
v -0.4 0.8 0.4
v -0.4 0.8 -0.4
v -0.4 0.9 0.4
v -0.4 0.9 -0.4
v 0.3 0 0.4
v 0.3 0 -0.4
v 0.3 0.1 0.5
v 0.3 0.1 0.4
v 0.3 0.1 -0.4
v 0.3 0.1 -0.5
v 0.3 0.2 0.5
v 0.3 0.2 0.4
v 0.3 0.2 -0.4
v 0.3 0.2 -0.5
v 0.3 0.3 0.5
v 0.3 0.3 0.4
v 0.3 0.3 -0.4
v 0.3 0.3 -0.5
v 0.3 0.4 0.5
v 0.3 0.4 0.4
v 0.3 0.4 -0.4
v 0.3 0.4 -0.5
v 0.3 0.5 0.5
v 0.3 0.5 0.4
v 0.3 0.5 -0.4
v 0.3 0.5 -0.5
v 0.3 0.6 0.5
v 0.3 0.6 0.4
v 0.3 0.6 -0.4
v 0.3 0.6 -0.5
v 0.3 0.7 0.5
v 0.3 0.7 0.4
v 0.3 0.7 -0.4
v 0.3 0.7 -0.5
v 0.3 0.8 0.5
v 0.3 0.8 0.4
v 0.3 0.8 -0.4
v 0.3 0.8 -0.5
v 0.4 0.1 0.4
v 0.4 0.1 -0.4
v 0.4 0.2 0.3
v 0.4 0.2 -0.3
v 0.4 0.7 0.3
v 0.4 0.7 -0.3
v 0.4 0.8 0.3
v 0.4 0.8 -0.3
v 0.4 0.9 0.4
v 0.4 0.9 0.1
v 0.4 0.9 -0.1
v 0.4 0.9 -0.4
v 0.5 0.2 0.3
v 0.5 0.2 -0.3
v 0.5 0.4 0.2
v 0.5 0.4 0.1
v 0.5 0.5 -0.1
v 0.5 0.5 -0.2
v 0.5 0.6 0.2
v 0.5 0.6 0.1
v 0.5 0.6 0
v 0.5 0.6 -0.1
v 0.5 0.7 0.3
v 0.5 0.7 0
v 0.5 0.7 -0.2
v 0.5 0.7 -0.3
v 0.5 0.8 0.3
v 0.5 0.8 -0.3
v 0.6 0.4 0.2
v 0.6 0.4 0.1
v 0.6 0.6 0.2
v 0.6 0.6 0.1
v 0.6 0.9 0.5
v 0.6 0.9 -0.5
v 0.6 1 0.5
v 0.6 1 -0.5
v -0.5 0.1 0.5
v -0.5 0.2 0.5
v -0.5 0.3 0.5
v -0.5 0.4 0.5
v -0.5 0.5 0.5
v -0.5 0.6 0.5
v -0.5 0.7 0.5
v -0.5 0.8 0.5
v -0.5 0.9 0.5
v -0.5 1 0.5
v 0.3 0.1 0.5
v 0.3 0.2 0.5
v 0.3 0.3 0.5
v 0.3 0.4 0.5
v 0.3 0.5 0.5
v 0.3 0.6 0.5
v 0.3 0.7 0.5
v 0.3 0.8 0.5
v 0.6 0.9 0.5
v 0.6 1 0.5
v -0.4 0 0.4
v -0.4 0.1 0.4
v -0.4 0.8 0.4
v -0.4 0.9 0.4
v 0.3 0 0.4
v 0.3 0.1 0.4
v 0.3 0.2 0.4
v 0.3 0.3 0.4
v 0.3 0.4 0.4
v 0.3 0.5 0.4
v 0.3 0.6 0.4
v 0.3 0.7 0.4
v 0.3 0.8 0.4
v 0.4 0.1 0.4
v 0.4 0.9 0.4
v 0.4 0.2 0.3
v 0.4 0.7 0.3
v 0.4 0.8 0.3
v 0.5 0.2 0.3
v 0.5 0.7 0.3
v 0.5 0.8 0.3
v 0.5 0.4 0.2
v 0.5 0.6 0.2
v 0.6 0.4 0.2
v 0.6 0.6 0.2
v 0.5 0.4 0.1
v 0.5 0.6 0.1
v 0.6 0.4 0.1
v 0.6 0.6 0.1
v 0.4 0.2 -0.3
v 0.4 0.7 -0.3
v 0.4 0.8 -0.3
v 0.5 0.2 -0.3
v 0.5 0.7 -0.3
v 0.5 0.8 -0.3
v -0.4 0 -0.4
v -0.4 0.1 -0.4
v -0.4 0.8 -0.4
v -0.4 0.9 -0.4
v 0.3 0 -0.4
v 0.3 0.1 -0.4
v 0.3 0.2 -0.4
v 0.3 0.3 -0.4
v 0.3 0.4 -0.4
v 0.3 0.5 -0.4
v 0.3 0.6 -0.4
v 0.3 0.7 -0.4
v 0.3 0.8 -0.4
v 0.4 0.1 -0.4
v 0.4 0.9 -0.4
v -0.5 0.1 -0.5
v -0.5 0.2 -0.5
v -0.5 0.3 -0.5
v -0.5 0.4 -0.5
v -0.5 0.5 -0.5
v -0.5 0.6 -0.5
v -0.5 0.7 -0.5
v -0.5 0.8 -0.5
v -0.5 0.9 -0.5
v -0.5 1 -0.5
v 0.3 0.1 -0.5
v 0.3 0.2 -0.5
v 0.3 0.3 -0.5
v 0.3 0.4 -0.5
v 0.3 0.5 -0.5
v 0.3 0.6 -0.5
v 0.3 0.7 -0.5
v 0.3 0.8 -0.5
v 0.6 0.9 -0.5
v 0.6 1 -0.5
v -0.4 0 0.4
v 0.3 0 0.4
v -0.4 0 -0.4
v 0.3 0 -0.4
v -0.5 0.1 0.5
v 0.3 0.1 0.5
v -0.4 0.1 0.4
v 0.3 0.1 0.4
v 0.4 0.1 0.4
v -0.4 0.1 -0.4
v 0.3 0.1 -0.4
v 0.4 0.1 -0.4
v -0.5 0.1 -0.5
v 0.3 0.1 -0.5
v 0.4 0.2 0.3
v 0.5 0.2 0.3
v 0.4 0.2 -0.3
v 0.5 0.2 -0.3
v 0.5 0.4 0.2
v 0.6 0.4 0.2
v 0.5 0.4 0.1
v 0.6 0.4 0.1
v -0.5 0.9 0.5
v 0.6 0.9 0.5
v -0.4 0.9 0.4
v 0.4 0.9 0.4
v 0.5 0.9 0.4
v 0.4 0.9 0.1
v 0.5 0.9 0.1
v 0.4 0.9 -0.1
v 0.5 0.9 -0.1
v -0.4 0.9 -0.4
v 0.4 0.9 -0.4
v 0.5 0.9 -0.4
v -0.5 0.9 -0.5
v 0.6 0.9 -0.5
v 0.5 0.6 0.2
v 0.6 0.6 0.2
v 0.5 0.6 0.1
v 0.6 0.6 0.1
v -0.5 0.8 0.5
v 0.3 0.8 0.5
v -0.4 0.8 0.4
v 0.3 0.8 0.4
v 0.4 0.8 0.3
v 0.5 0.8 0.3
v 0.4 0.8 -0.3
v 0.5 0.8 -0.3
v -0.4 0.8 -0.4
v 0.3 0.8 -0.4
v -0.5 0.8 -0.5
v 0.3 0.8 -0.5
v -0.5 1 0.5
v 0.6 1 0.5
v -0.4 1 0.4
v 0.5 1 0.4
v -0.3 1 0.3
v 0.4 1 0.3
v 0.4 1 0.1
v 0.5 1 0.1
v -0.4 1 0
v -0.3 1 0
v 0.4 1 -0.1
v 0.5 1 -0.1
v -0.4 1 -0.2
v -0.3 1 -0.2
v -0.3 1 -0.3
v 0.2 1 -0.3
v 0.3 1 -0.3
v 0.4 1 -0.3
v -0.4 1 -0.4
v 0.2 1 -0.4
v 0.3 1 -0.4
v 0.5 1 -0.4
v -0.5 1 -0.5
v 0.6 1 -0.5

# faces
f 3/6/1 2/6/1 1/6/1
f 4/6/1 2/6/1 3/6/1
f 5/3/1 4/3/1 3/3/1
f 6/3/1 4/3/1 5/3/1
f 7/6/1 6/6/1 5/6/1
f 8/6/1 6/6/1 7/6/1
f 9/3/1 8/3/1 7/3/1
f 10/3/1 8/3/1 9/3/1
f 11/6/1 10/6/1 9/6/1
f 12/6/1 10/6/1 11/6/1
f 13/3/1 12/3/1 11/3/1
f 14/3/1 12/3/1 13/3/1
f 15/6/1 14/6/1 13/6/1
f 16/6/1 14/6/1 15/6/1
f 19/1/1 18/1/1 17/1/1
f 20/1/1 18/1/1 19/1/1
f 23/6/1 22/6/1 21/6/1
f 24/6/1 22/6/1 23/6/1
f 27/6/1 26/6/1 25/6/1
f 28/6/1 26/6/1 27/6/1
f 29/6/2 30/6/2 32/6/2
f 32/6/2 30/6/2 33/6/2
f 31/6/2 32/6/2 35/6/2
f 35/6/2 32/6/2 36/6/2
f 33/6/2 34/6/2 37/6/2
f 37/6/2 34/6/2 38/6/2
f 35/3/2 36/3/2 39/3/2
f 39/3/2 36/3/2 40/3/2
f 37/3/2 38/3/2 41/3/2
f 41/3/2 38/3/2 42/3/2
f 39/6/2 40/6/2 43/6/2
f 43/6/2 40/6/2 44/6/2
f 41/6/2 42/6/2 45/6/2
f 45/6/2 42/6/2 46/6/2
f 43/3/2 44/3/2 47/3/2
f 47/3/2 44/3/2 48/3/2
f 45/3/2 46/3/2 49/3/2
f 49/3/2 46/3/2 50/3/2
f 47/6/2 48/6/2 51/6/2
f 51/6/2 48/6/2 52/6/2
f 49/6/2 50/6/2 53/6/2
f 53/6/2 50/6/2 54/6/2
f 51/3/2 52/3/2 55/3/2
f 55/3/2 52/3/2 56/3/2
f 53/3/2 54/3/2 57/3/2
f 57/3/2 54/3/2 58/3/2
f 55/6/2 56/6/2 59/6/2
f 59/6/2 56/6/2 60/6/2
f 57/6/2 58/6/2 61/6/2
f 61/6/2 58/6/2 62/6/2
f 63/6/2 64/6/2 65/6/2
f 65/6/2 64/6/2 66/6/2
f 63/6/2 65/6/2 67/6/2
f 66/6/2 64/6/2 68/6/2
f 63/6/2 67/6/2 69/6/2
f 68/6/2 64/6/2 70/6/2
f 63/6/2 69/6/2 71/6/2
f 69/6/2 70/6/2 71/6/2
f 71/6/2 70/6/2 72/6/2
f 72/6/2 70/6/2 73/6/2
f 70/6/2 64/6/2 74/6/2
f 73/6/2 70/6/2 74/6/2
f 75/4/2 76/4/2 77/4/2
f 77/4/2 76/4/2 78/4/2
f 78/4/2 76/4/2 79/4/2
f 79/4/2 76/4/2 80/4/2
f 75/4/2 77/4/2 81/4/2
f 78/4/2 79/4/2 82/4/2
f 82/4/2 79/4/2 83/4/2
f 79/9/2 80/9/2 84/9/2
f 83/4/2 79/4/2 84/4/2
f 75/4/2 81/4/2 85/4/2
f 82/4/2 83/4/2 85/4/2
f 81/4/2 82/4/2 85/4/2
f 83/9/2 84/9/2 86/9/2
f 85/4/2 83/4/2 86/4/2
f 80/4/2 76/4/2 87/4/2
f 86/9/2 84/9/2 87/9/2
f 84/9/2 80/9/2 87/9/2
f 87/4/2 76/4/2 88/4/2
f 85/8/2 86/8/2 89/8/2
f 86/8/2 87/8/2 89/8/2
f 87/8/2 88/8/2 89/8/2
f 89/8/2 88/8/2 90/8/2
f 91/2/2 92/2/2 93/2/2
f 93/2/2 92/2/2 94/2/2
f 95/1/2 96/1/2 97/1/2
f 97/1/2 96/1/2 98/1/2
f 109/6/3 100/6/3 99/6/3
f 110/3/3 101/3/3 100/3/3
f 110/6/3 100/6/3 109/6/3
f 111/6/3 102/6/3 101/6/3
f 111/3/3 101/3/3 110/3/3
f 112/3/3 103/3/3 102/3/3
f 112/6/3 102/6/3 111/6/3
f 113/6/3 104/6/3 103/6/3
f 113/3/3 103/3/3 112/3/3
f 114/3/3 105/3/3 104/3/3
f 114/6/3 104/6/3 113/6/3
f 115/6/3 106/6/3 105/6/3
f 115/3/3 105/3/3 114/3/3
f 116/6/3 106/6/3 115/6/3
f 117/1/3 108/1/3 107/1/3
f 118/1/3 108/1/3 117/1/3
f 123/6/3 120/6/3 119/6/3
f 124/6/3 120/6/3 123/6/3
f 131/6/3 122/6/3 121/6/3
f 132/6/3 130/6/3 129/6/3
f 132/6/3 131/6/3 130/6/3
f 132/6/3 125/6/3 124/6/3
f 132/6/3 129/6/3 128/6/3
f 132/6/3 128/6/3 127/6/3
f 132/6/3 127/6/3 126/6/3
f 132/6/3 126/6/3 125/6/3
f 133/6/3 122/6/3 131/6/3
f 133/6/3 131/6/3 132/6/3
f 137/4/3 135/4/3 134/4/3
f 138/8/3 136/8/3 135/8/3
f 138/4/3 135/4/3 137/4/3
f 139/8/3 136/8/3 138/8/3
f 142/2/3 141/2/3 140/2/3
f 143/2/3 141/2/3 142/2/3
f 144/2/4 145/2/4 146/2/4
f 146/2/4 145/2/4 147/2/4
f 148/4/4 149/4/4 151/4/4
f 149/8/4 150/8/4 152/8/4
f 151/4/4 149/4/4 152/4/4
f 152/8/4 150/8/4 153/8/4
f 154/6/4 155/6/4 158/6/4
f 158/6/4 155/6/4 159/6/4
f 156/6/4 157/6/4 166/6/4
f 164/6/4 165/6/4 167/6/4
f 165/6/4 166/6/4 167/6/4
f 159/6/4 160/6/4 167/6/4
f 163/6/4 164/6/4 167/6/4
f 162/6/4 163/6/4 167/6/4
f 161/6/4 162/6/4 167/6/4
f 160/6/4 161/6/4 167/6/4
f 166/6/4 157/6/4 168/6/4
f 167/6/4 166/6/4 168/6/4
f 169/6/4 170/6/4 179/6/4
f 170/3/4 171/3/4 180/3/4
f 179/6/4 170/6/4 180/6/4
f 171/6/4 172/6/4 181/6/4
f 180/3/4 171/3/4 181/3/4
f 172/3/4 173/3/4 182/3/4
f 181/6/4 172/6/4 182/6/4
f 173/6/4 174/6/4 183/6/4
f 182/3/4 173/3/4 183/3/4
f 174/3/4 175/3/4 184/3/4
f 183/6/4 174/6/4 184/6/4
f 175/6/4 176/6/4 185/6/4
f 184/3/4 175/3/4 185/3/4
f 185/6/4 176/6/4 186/6/4
f 177/1/4 178/1/4 187/1/4
f 187/1/4 178/1/4 188/1/4
f 191/6/5 190/6/5 189/6/5
f 192/6/5 190/6/5 191/6/5
f 195/6/5 194/6/5 193/6/5
f 196/6/5 194/6/5 195/6/5
f 198/6/5 195/6/5 193/6/5
f 199/6/5 197/6/5 196/6/5
f 200/6/5 197/6/5 199/6/5
f 201/6/5 198/6/5 193/6/5
f 201/6/5 199/6/5 198/6/5
f 202/6/5 199/6/5 201/6/5
f 205/4/5 204/4/5 203/4/5
f 206/4/5 204/4/5 205/4/5
f 209/2/5 208/2/5 207/2/5
f 210/2/5 208/2/5 209/2/5
f 213/1/5 212/1/5 211/1/5
f 214/1/5 212/1/5 213/1/5
f 215/1/5 212/1/5 214/1/5
f 216/5/5 215/5/5 214/5/5
f 217/1/5 212/1/5 215/1/5
f 217/5/5 215/5/5 216/5/5
f 218/1/5 217/1/5 216/1/5
f 219/1/5 212/1/5 217/1/5
f 219/1/5 217/1/5 218/1/5
f 220/1/5 213/1/5 211/1/5
f 221/5/5 219/5/5 218/5/5
f 222/1/5 212/1/5 219/1/5
f 222/5/5 219/5/5 221/5/5
f 223/1/5 221/1/5 220/1/5
f 223/1/5 220/1/5 211/1/5
f 223/1/5 222/1/5 221/1/5
f 224/1/5 212/1/5 222/1/5
f 224/1/5 222/1/5 223/1/5
f 225/2/6 226/2/6 227/2/6
f 227/2/6 226/2/6 228/2/6
f 229/6/6 230/6/6 231/6/6
f 231/6/6 230/6/6 232/6/6
f 233/8/6 234/8/6 235/8/6
f 235/8/6 234/8/6 236/8/6
f 229/6/6 231/6/6 237/6/6
f 229/6/6 237/6/6 239/6/6
f 237/6/6 238/6/6 239/6/6
f 239/6/6 238/6/6 240/6/6
f 241/1/6 242/1/6 243/1/6
f 243/1/6 242/1/6 244/1/6
f 243/5/6 244/5/6 245/5/6
f 245/5/6 244/5/6 246/5/6
f 245/1/6 246/1/6 247/1/6
f 246/5/6 244/5/6 247/5/6
f 244/1/6 242/1/6 248/1/6
f 247/5/6 244/5/6 248/5/6
f 241/1/6 243/1/6 249/1/6
f 243/5/6 245/5/6 249/5/6
f 245/1/6 247/1/6 250/1/6
f 249/5/6 245/5/6 250/5/6
f 247/1/6 248/1/6 250/1/6
f 249/1/6 250/1/6 251/1/6
f 250/1/6 248/1/6 251/1/6
f 248/1/6 242/1/6 252/1/6
f 251/1/6 248/1/6 252/1/6
f 249/1/6 251/1/6 253/1/6
f 241/1/6 249/1/6 253/1/6
f 253/1/6 251/1/6 254/1/6
f 253/5/6 254/5/6 255/5/6
f 254/1/6 251/1/6 255/1/6
f 255/1/6 251/1/6 256/1/6
f 256/1/6 251/1/6 257/1/6
f 251/5/6 252/5/6 258/5/6
f 257/1/6 251/1/6 258/1/6
f 241/1/6 253/1/6 259/1/6
f 253/5/6 255/5/6 259/5/6
f 255/5/6 256/5/6 259/5/6
f 256/1/6 257/1/6 260/1/6
f 259/5/6 256/5/6 260/5/6
f 257/5/6 258/5/6 261/5/6
f 260/1/6 257/1/6 261/1/6
f 252/1/6 242/1/6 262/1/6
f 261/5/6 258/5/6 262/5/6
f 258/5/6 252/5/6 262/5/6
f 260/1/6 261/1/6 263/1/6
f 241/1/6 259/1/6 263/1/6
f 261/1/6 262/1/6 263/1/6
f 259/1/6 260/1/6 263/1/6
f 262/1/6 242/1/6 264/1/6
f 263/1/6 262/1/6 264/1/6
