# MagicaVoxel @ Ephtracy

# group
o 

# material
mtllib trash.mtl
usemtl palette

# normals
vn -1 0 0
vn 1 0 0
vn 0 0 1
vn 0 0 -1
vn 0 -1 0
vn 0 1 0

# texcoords
vt 0.0761719 0.5
vt 0.939453 0.5
vt 0.970703 0.5
vt 0.974609 0.5
vt 0.978516 0.5
vt 0.982422 0.5
vt 0.986328 0.5

# verts
v -0.5 1 0.5
v -0.5 1 -0.5
v -0.5 1.4 0.5
v -0.5 1.4 0.3
v -0.5 1.4 0.1
v -0.5 1.4 -0.3
v -0.5 1.5 0.3
v -0.5 1.5 0.1
v -0.5 1.5 -0.3
v -0.5 1.5 -0.5
v -0.5 1.6 0.5
v -0.5 1.6 -0.5
v -0.4 1.6 0.4
v -0.4 1.6 0.3
v -0.4 1.6 0.2
v -0.4 1.6 0
v -0.4 1.6 -0.2
v -0.4 1.6 -0.4
v -0.4 1.7 0.3
v -0.4 1.7 0.2
v -0.4 1.7 0
v -0.4 1.7 -0.2
v -0.4 1.8 0.4
v -0.4 1.8 -0.4
v 0.3 1.4 0.3
v 0.3 1.4 -0.3
v 0.3 1.6 0.3
v 0.3 1.6 0.1
v 0.3 1.6 -0.1
v 0.3 1.6 -0.3
v 0.3 1.7 0.1
v 0.3 1.7 -0.1
v 0.3 1.8 0.3
v 0.3 1.8 -0.3
v -0.3 1.4 0.3
v -0.3 1.4 -0.3
v -0.3 1.6 0.2
v -0.3 1.6 0
v -0.3 1.6 -0.2
v -0.3 1.6 -0.3
v -0.3 1.7 0.3
v -0.3 1.7 0.2
v -0.3 1.7 0
v -0.3 1.7 -0.2
v -0.3 1.8 0.3
v -0.3 1.8 -0.3
v 0.4 1.6 0.4
v 0.4 1.6 0.1
v 0.4 1.6 -0.1
v 0.4 1.6 -0.4
v 0.4 1.7 0.1
v 0.4 1.7 -0.1
v 0.4 1.8 0.4
v 0.4 1.8 -0.4
v 0.5 1 0.5
v 0.5 1 -0.5
v 0.5 1.4 0.5
v 0.5 1.4 -0.4
v 0.5 1.5 -0.4
v 0.5 1.5 -0.5
v 0.5 1.6 0.5
v 0.5 1.6 -0.5
v -0.5 1 0.5
v -0.5 1.4 0.5
v -0.5 1.6 0.5
v -0.3 1.4 0.5
v -0.3 1.5 0.5
v 0 1.4 0.5
v 0 1.5 0.5
v 0.5 1 0.5
v 0.5 1.4 0.5
v 0.5 1.6 0.5
v -0.4 1.6 0.4
v -0.4 1.8 0.4
v -0.3 1.6 0.4
v -0.3 1.7 0.4
v -0.2 1.6 0.4
v -0.2 1.7 0.4
v 0.1 1.6 0.4
v 0.1 1.7 0.4
v 0.2 1.6 0.4
v 0.2 1.7 0.4
v 0.4 1.6 0.4
v 0.4 1.8 0.4
v -0.3 1.4 -0.3
v -0.3 1.6 -0.3
v -0.3 1.8 -0.3
v -0.1 1.6 -0.3
v -0.1 1.7 -0.3
v 0.2 1.6 -0.3
v 0.2 1.7 -0.3
v 0.3 1.4 -0.3
v 0.3 1.6 -0.3
v 0.3 1.8 -0.3
v -0.3 1.4 0.3
v -0.3 1.7 0.3
v -0.3 1.8 0.3
v -0.2 1.6 0.3
v -0.2 1.7 0.3
v 0.1 1.6 0.3
v 0.1 1.7 0.3
v 0.2 1.6 0.3
v 0.2 1.7 0.3
v 0.3 1.4 0.3
v 0.3 1.6 0.3
v 0.3 1.8 0.3
v -0.4 1.6 -0.4
v -0.4 1.8 -0.4
v -0.1 1.6 -0.4
v -0.1 1.7 -0.4
v 0.2 1.6 -0.4
v 0.2 1.7 -0.4
v 0.4 1.6 -0.4
v 0.4 1.8 -0.4
v -0.5 1 -0.5
v -0.5 1.5 -0.5
v -0.5 1.6 -0.5
v -0.4 1.4 -0.5
v -0.4 1.5 -0.5
v -0.3 1.4 -0.5
v -0.3 1.5 -0.5
v -0.1 1.4 -0.5
v -0.1 1.5 -0.5
v 0.3 1.4 -0.5
v 0.3 1.5 -0.5
v 0.5 1 -0.5
v 0.5 1.5 -0.5
v 0.5 1.6 -0.5
v -0.5 1 0.5
v 0.5 1 0.5
v -0.4 1 0.4
v 0.4 1 0.4
v -0.4 1 -0.4
v 0.4 1 -0.4
v -0.5 1 -0.5
v 0.5 1 -0.5
v -0.3 1.4 0.3
v 0.3 1.4 0.3
v -0.2 1.4 0.2
v -0.1 1.4 0.2
v 0 1.4 0.2
v 0.1 1.4 0.2
v 0.2 1.4 0.2
v -0.1 1.4 0.1
v 0 1.4 0.1
v 0.1 1.4 0.1
v 0.2 1.4 0.1
v -0.2 1.4 0
v -0.1 1.4 0
v 0 1.4 0
v 0.2 1.4 0
v -0.2 1.4 -0.1
v -0.1 1.4 -0.1
v -0.2 1.4 -0.2
v 0 1.4 -0.2
v 0.2 1.4 -0.2
v -0.3 1.4 -0.3
v 0.3 1.4 -0.3
v -0.5 1.6 0.5
v 0.5 1.6 0.5
v -0.4 1.6 0.4
v -0.3 1.6 0.4
v -0.2 1.6 0.4
v 0.1 1.6 0.4
v 0.2 1.6 0.4
v 0.4 1.6 0.4
v -0.4 1.6 0.3
v -0.4 1.6 0.2
v 0.4 1.6 0.1
v -0.4 1.6 0
v 0.4 1.6 -0.1
v -0.4 1.6 -0.2
v -0.4 1.6 -0.4
v -0.1 1.6 -0.4
v 0.2 1.6 -0.4
v 0.4 1.6 -0.4
v -0.5 1.6 -0.5
v 0.5 1.6 -0.5
v -0.4 1.8 0.4
v 0.4 1.8 0.4
v -0.3 1.8 0.3
v 0.3 1.8 0.3
v -0.3 1.8 -0.3
v 0.3 1.8 -0.3
v -0.4 1.8 -0.4
v 0.4 1.8 -0.4

# faces
f 3/3/1 2/3/1 1/3/1
f 4/3/1 2/3/1 3/3/1
f 5/3/1 2/3/1 4/3/1
f 6/3/1 2/3/1 5/3/1
f 7/4/1 4/4/1 3/4/1
f 7/3/1 5/3/1 4/3/1
f 8/4/1 6/4/1 5/4/1
f 8/3/1 5/3/1 7/3/1
f 9/3/1 2/3/1 6/3/1
f 9/4/1 6/4/1 8/4/1
f 10/3/1 2/3/1 9/3/1
f 11/4/1 8/4/1 7/4/1
f 11/4/1 7/4/1 3/4/1
f 11/4/1 10/4/1 9/4/1
f 11/4/1 9/4/1 8/4/1
f 12/4/1 10/4/1 11/4/1
f 19/4/1 14/4/1 13/4/1
f 19/2/1 15/2/1 14/2/1
f 20/4/1 16/4/1 15/4/1
f 20/2/1 15/2/1 19/2/1
f 21/2/1 17/2/1 16/2/1
f 21/4/1 16/4/1 20/4/1
f 22/4/1 18/4/1 17/4/1
f 22/2/1 17/2/1 21/2/1
f 23/4/1 21/4/1 20/4/1
f 23/4/1 20/4/1 19/4/1
f 23/4/1 22/4/1 21/4/1
f 23/4/1 19/4/1 13/4/1
f 24/4/1 18/4/1 22/4/1
f 24/4/1 22/4/1 23/4/1
f 27/2/1 26/2/1 25/2/1
f 28/2/1 26/2/1 27/2/1
f 29/2/1 26/2/1 28/2/1
f 30/2/1 26/2/1 29/2/1
f 31/4/1 28/4/1 27/4/1
f 31/2/1 29/2/1 28/2/1
f 32/4/1 30/4/1 29/4/1
f 32/2/1 29/2/1 31/2/1
f 33/4/1 31/4/1 27/4/1
f 33/4/1 32/4/1 31/4/1
f 34/4/1 30/4/1 32/4/1
f 34/4/1 32/4/1 33/4/1
f 35/2/2 36/2/2 37/2/2
f 37/2/2 36/2/2 38/2/2
f 38/2/2 36/2/2 39/2/2
f 39/2/2 36/2/2 40/2/2
f 35/2/2 37/2/2 41/2/2
f 37/4/2 38/4/2 42/4/2
f 41/2/2 37/2/2 42/2/2
f 38/2/2 39/2/2 43/2/2
f 42/4/2 38/4/2 43/4/2
f 39/4/2 40/4/2 44/4/2
f 43/2/2 39/2/2 44/2/2
f 41/4/2 42/4/2 45/4/2
f 42/4/2 43/4/2 45/4/2
f 43/4/2 44/4/2 45/4/2
f 44/4/2 40/4/2 46/4/2
f 45/4/2 44/4/2 46/4/2
f 47/4/2 48/4/2 51/4/2
f 48/2/2 49/2/2 51/2/2
f 49/4/2 50/4/2 52/4/2
f 51/2/2 49/2/2 52/2/2
f 47/4/2 51/4/2 53/4/2
f 51/4/2 52/4/2 53/4/2
f 52/4/2 50/4/2 54/4/2
f 53/4/2 52/4/2 54/4/2
f 55/3/2 56/3/2 57/3/2
f 57/3/2 56/3/2 58/3/2
f 57/4/2 58/4/2 59/4/2
f 58/3/2 56/3/2 59/3/2
f 59/3/2 56/3/2 60/3/2
f 57/4/2 59/4/2 61/4/2
f 59/4/2 60/4/2 61/4/2
f 61/4/2 60/4/2 62/4/2
f 66/3/3 64/3/3 63/3/3
f 66/4/3 65/4/3 64/4/3
f 67/4/3 65/4/3 66/4/3
f 68/3/3 66/3/3 63/3/3
f 68/3/3 67/3/3 66/3/3
f 69/4/3 65/4/3 67/4/3
f 69/3/3 67/3/3 68/3/3
f 70/3/3 68/3/3 63/3/3
f 71/4/3 69/4/3 68/4/3
f 71/3/3 68/3/3 70/3/3
f 72/4/3 65/4/3 69/4/3
f 72/4/3 69/4/3 71/4/3
f 75/4/3 74/4/3 73/4/3
f 76/4/3 74/4/3 75/4/3
f 77/2/3 76/2/3 75/2/3
f 78/4/3 74/4/3 76/4/3
f 78/2/3 76/2/3 77/2/3
f 79/4/3 78/4/3 77/4/3
f 80/4/3 74/4/3 78/4/3
f 80/4/3 78/4/3 79/4/3
f 81/2/3 80/2/3 79/2/3
f 82/4/3 74/4/3 80/4/3
f 82/2/3 80/2/3 81/2/3
f 83/4/3 82/4/3 81/4/3
f 84/4/3 74/4/3 82/4/3
f 84/4/3 82/4/3 83/4/3
f 88/2/3 86/2/3 85/2/3
f 88/4/3 87/4/3 86/4/3
f 89/4/3 87/4/3 88/4/3
f 90/2/3 88/2/3 85/2/3
f 90/2/3 89/2/3 88/2/3
f 91/4/3 87/4/3 89/4/3
f 91/2/3 89/2/3 90/2/3
f 92/2/3 90/2/3 85/2/3
f 93/4/3 91/4/3 90/4/3
f 93/2/3 90/2/3 92/2/3
f 94/4/3 87/4/3 91/4/3
f 94/4/3 91/4/3 93/4/3
f 95/2/4 96/2/4 98/2/4
f 96/4/4 97/4/4 99/4/4
f 98/2/4 96/2/4 99/2/4
f 95/2/4 98/2/4 100/2/4
f 98/4/4 99/4/4 100/4/4
f 99/4/4 97/4/4 101/4/4
f 100/4/4 99/4/4 101/4/4
f 95/2/4 100/2/4 102/2/4
f 100/2/4 101/2/4 102/2/4
f 101/4/4 97/4/4 103/4/4
f 102/2/4 101/2/4 103/2/4
f 95/2/4 102/2/4 104/2/4
f 102/4/4 103/4/4 105/4/4
f 104/2/4 102/2/4 105/2/4
f 103/4/4 97/4/4 106/4/4
f 105/4/4 103/4/4 106/4/4
f 107/4/4 108/4/4 109/4/4
f 109/4/4 108/4/4 110/4/4
f 109/2/4 110/2/4 111/2/4
f 110/4/4 108/4/4 112/4/4
f 111/2/4 110/2/4 112/2/4
f 111/4/4 112/4/4 113/4/4
f 112/4/4 108/4/4 114/4/4
f 113/4/4 112/4/4 114/4/4
f 115/3/4 116/3/4 118/3/4
f 116/4/4 117/4/4 119/4/4
f 118/3/4 116/3/4 119/3/4
f 115/3/4 118/3/4 120/3/4
f 118/4/4 119/4/4 120/4/4
f 119/4/4 117/4/4 121/4/4
f 120/4/4 119/4/4 121/4/4
f 115/3/4 120/3/4 122/3/4
f 120/3/4 121/3/4 122/3/4
f 121/4/4 117/4/4 123/4/4
f 122/3/4 121/3/4 123/3/4
f 115/3/4 122/3/4 124/3/4
f 122/4/4 123/4/4 124/4/4
f 123/4/4 117/4/4 125/4/4
f 124/4/4 123/4/4 125/4/4
f 115/3/4 124/3/4 126/3/4
f 124/3/4 125/3/4 126/3/4
f 125/4/4 117/4/4 127/4/4
f 126/3/4 125/3/4 127/3/4
f 127/4/4 117/4/4 128/4/4
f 131/3/5 130/3/5 129/3/5
f 132/3/5 130/3/5 131/3/5
f 133/3/5 131/3/5 129/3/5
f 133/1/5 132/1/5 131/1/5
f 134/3/5 130/3/5 132/3/5
f 134/1/5 132/1/5 133/1/5
f 135/3/5 133/3/5 129/3/5
f 135/3/5 134/3/5 133/3/5
f 136/3/5 130/3/5 134/3/5
f 136/3/5 134/3/5 135/3/5
f 137/2/6 138/2/6 139/2/6
f 139/2/6 138/2/6 140/2/6
f 140/2/6 138/2/6 141/2/6
f 141/2/6 138/2/6 142/2/6
f 142/2/6 138/2/6 143/2/6
f 139/7/6 140/7/6 144/7/6
f 140/5/6 141/5/6 144/5/6
f 141/6/6 142/6/6 145/6/6
f 144/5/6 141/5/6 145/5/6
f 142/5/6 143/5/6 146/5/6
f 145/6/6 142/6/6 146/6/6
f 143/2/6 138/2/6 147/2/6
f 146/5/6 143/5/6 147/5/6
f 137/2/6 139/2/6 148/2/6
f 145/7/6 146/7/6 148/7/6
f 146/7/6 147/7/6 148/7/6
f 139/7/6 144/7/6 148/7/6
f 144/7/6 145/7/6 148/7/6
f 148/7/6 147/7/6 149/7/6
f 149/7/6 147/7/6 150/7/6
f 147/2/6 138/2/6 151/2/6
f 150/7/6 147/7/6 151/7/6
f 137/2/6 148/2/6 152/2/6
f 148/5/6 149/5/6 152/5/6
f 149/6/6 150/6/6 153/6/6
f 152/5/6 149/5/6 153/5/6
f 137/2/6 152/2/6 154/2/6
f 152/6/6 153/6/6 154/6/6
f 153/6/6 150/6/6 155/6/6
f 154/6/6 153/6/6 155/6/6
f 150/5/6 151/5/6 155/5/6
f 151/2/6 138/2/6 156/2/6
f 155/5/6 151/5/6 156/5/6
f 137/2/6 154/2/6 157/2/6
f 154/2/6 155/2/6 157/2/6
f 155/2/6 156/2/6 157/2/6
f 156/2/6 138/2/6 158/2/6
f 157/2/6 156/2/6 158/2/6
f 159/4/6 160/4/6 161/4/6
f 161/4/6 160/4/6 162/4/6
f 162/4/6 160/4/6 163/4/6
f 163/4/6 160/4/6 164/4/6
f 164/4/6 160/4/6 165/4/6
f 165/4/6 160/4/6 166/4/6
f 159/4/6 161/4/6 167/4/6
f 159/4/6 167/4/6 168/4/6
f 166/4/6 160/4/6 169/4/6
f 159/4/6 168/4/6 170/4/6
f 169/4/6 160/4/6 171/4/6
f 159/4/6 170/4/6 172/4/6
f 159/4/6 172/4/6 173/4/6
f 171/4/6 160/4/6 176/4/6
f 174/4/6 175/4/6 177/4/6
f 175/4/6 176/4/6 177/4/6
f 159/4/6 173/4/6 177/4/6
f 173/4/6 174/4/6 177/4/6
f 176/4/6 160/4/6 178/4/6
f 177/4/6 176/4/6 178/4/6
f 179/4/6 180/4/6 181/4/6
f 181/4/6 180/4/6 182/4/6
f 179/4/6 181/4/6 183/4/6
f 182/4/6 180/4/6 184/4/6
f 179/4/6 183/4/6 185/4/6
f 183/4/6 184/4/6 185/4/6
f 184/4/6 180/4/6 186/4/6
f 185/4/6 184/4/6 186/4/6
